<svg xmlns="http://www.w3.org/2000/svg" version="1.1" xmlns:xlink="http://www.w3.org/1999/xlink" xmlns:svgjs="http://svgjs.dev/svgjs" width="100%" height="100%" viewBox="0 0 1000 600"><rect width="1000" height="600" x="0" y="0" fill="#262223"/><g><rect width="333.3333333333333" height="333.3333333333333" rx="13.333333333333334" ry="13.333333333333334" y="243.29925053310888" fill="#ddc6b6" transform="matrix(0.5654138449273387,0,0,0.5654138449273387,0,68.19960872756491)" x="221.07699584960935"/><path d="M415.7083516320037 334.9659076283437L415.7083516320037 334.9659076283437Q416.0439757346475 334.9659076283437 416.0439757346475 335.996753086464Q416.0439757346475 337.02759854458435 415.7083516320037 337.02759854458435L415.7083516320037 337.02759854458435Q410.1945270885694 337.02759854458435 407.5095342674187 338.0824171528935Q404.8245414462681 339.11326261101385 403.88958858890317 341.7023628314091Q402.93066258134934 344.2914630518043 402.93066258134934 349.30185144127296L402.93066258134934 349.30185144127296L402.93066258134934 447.6876598162924Q402.93066258134934 464.2531065967842 395.1633619201636 474.6095074783652Q387.39606125897785 484.9659083599462 372.02927198792827 484.9659083599462L372.02927198792827 484.9659083599462Q366.1798233418501 484.9659083599462 362.799609165223 482.8802442935167Q359.4433681387847 480.81855337727603 359.4433681387847 477.53423180140425L359.4433681387847 477.53423180140425Q359.4433681387847 474.945131581009 361.00162290105965 473.3868768187341Q362.5359045131457 471.852595206648 365.3167899350517 471.852595206648L365.3167899350517 471.852595206648Q368.40932630941273 471.852595206648 370.06347367244297 473.2190647674122Q371.69364788528446 474.6095074783652 372.82038594416014 476.5992789440393Q373.94712400303587 478.56507725952457 375.3135935638 480.051412571233Q376.70403627475304 481.51377473275255 379.2931364951483 481.51377473275255L379.2931364951483 481.51377473275255Q385.3343703427372 481.51377473275255 388.4269067170982 474.5136148776098Q391.543416241648 467.53742817265595 391.543416241648 451.30760549480794L391.543416241648 451.30760549480794L391.543416241648 348.94225418844024Q391.543416241648 343.9318657989717 390.3447587322058 341.4386581793318Q389.1221280725747 338.94545055969195 385.5021823940591 337.9865245521382Q381.88223671554357 337.02759854458435 374.61837220832354 337.02759854458435L374.61837220832354 337.02759854458435Q374.2827481056797 337.02759854458435 374.2827481056797 335.996753086464Q374.2827481056797 334.9659076283437 374.61837220832354 334.9659076283437L374.61837220832354 334.9659076283437Q379.6287605977921 334.9659076283437 385.3343703427372 335.229612280421Q391.01600693749344 335.4933169324983 397.05724078508234 335.4933169324983L397.05724078508234 335.4933169324983Q402.76285053002744 335.4933169324983 407.3417222160968 335.229612280421Q411.9205939021662 334.9659076283437 415.7083516320037 334.9659076283437Z " fill="#262223" transform="matrix(0.5654138449273387,0,0,0.5654138449273387,0,68.19960872756491)"/><path d="M638.2007907856133 481.89669129788496L638.2007907856133 481.89669129788496Q637.7436727919747 481.89669129788496 637.7436727919747 480.4926860317093Q637.7436727919747 479.08868076553375 638.2007907856133 479.08868076553375L638.2007907856133 479.08868076553375Q646.9186839500061 479.08868076553375 651.2613048895726 477.9132344961774Q655.603925829139 476.73778822682107 657.1385362363542 473.2114494187521Q658.6731466435693 469.68511061068307 658.6731466435693 462.8609919913644L658.6731466435693 462.8609919913644L658.6731466435693 354.00160693486424Q658.6731466435693 347.1774883155456 657.1385362363542 343.7817546485162Q655.603925829139 340.38602098148675 651.3919100306122 339.0799695710909Q647.1472429468254 337.7739181606949 638.4620010676925 337.7739181606949L638.4620010676925 337.7739181606949Q637.972231788794 337.7739181606949 637.972231788794 336.3699128945193Q637.972231788794 334.9659076283437 638.4620010676925 334.9659076283437L638.4620010676925 334.9659076283437L732.9548206098375 334.9659076283437Q735.0771541517308 334.9659076283437 735.0771541517308 337.08824117023704L735.0771541517308 337.08824117023704L735.5342721453694 365.98462862524684Q735.5342721453694 366.7029569009646 734.2608720202334 366.8335620420042Q732.9548206098375 366.93151589778387 732.9548206098375 366.245838907326L732.9548206098375 366.245838907326Q732.2364923341197 353.54448894122567 725.3144198590213 346.720370321907Q718.3923473839229 339.8962517025883 707.3235616808175 339.8962517025883L707.3235616808175 339.8962517025883L692.9896474517222 339.8962517025883Q681.2351847581589 339.8962517025883 677.4802869532707 342.73691352019944Q673.7253891483824 345.5449240525507 673.7253891483824 354.23016593168353L673.7253891483824 354.23016593168353L673.7253891483824 461.91410471882733Q673.7253891483824 468.96678233496533 675.7171175492361 472.6237262840739Q677.70884595009 476.2480189479226 683.9452414347305 477.6520242140982Q690.181636919371 479.08868076553375 702.3932176065729 479.08868076553375L702.3932176065729 479.08868076553375Q703.1115458822907 479.08868076553375 703.1115458822907 480.4926860317093Q703.1115458822907 481.89669129788496 702.3932176065729 481.89669129788496L702.3932176065729 481.89669129788496Q694.6222117147171 481.89669129788496 685.8063646945446 481.66813230106567Q676.9905176743722 481.4395733042464 666.1829422533459 481.4395733042464L666.1829422533459 481.4395733042464Q658.4445876467502 481.4395733042464 651.130699748533 481.66813230106567Q643.8494631355757 481.89669129788496 638.2007907856133 481.89669129788496ZM720.971798919455 429.94849644938716L720.971798919455 429.94849644938716Q720.971798919455 419.59803902199945 715.4537317105321 415.12481294139343Q709.9030132163494 410.6515868607874 696.9731042534298 410.6515868607874L696.9731042534298 410.6515868607874L666.6727115322444 410.6515868607874L666.6727115322444 405.7212427865428L697.6914325291476 405.7212427865428Q710.1642234984287 405.7212427865428 715.4537317105321 401.7377859848352Q720.7432399226356 397.7216778978678 720.7432399226356 389.2649950155542L720.7432399226356 389.2649950155542Q720.7432399226356 388.8078770219156 722.1472451888112 388.8078770219156Q723.5512504549869 388.8078770219156 723.5512504549869 389.2649950155542L723.5512504549869 389.2649950155542Q723.5512504549869 396.3176726316921 723.4206453139473 400.20317557762Q723.3226914581676 404.0886785235479 723.3226914581676 408.3006943220747L723.3226914581676 408.3006943220747Q723.3226914581676 413.7208076752178 723.5512504549869 418.8797107462817Q723.779809451806 424.0712651026055 723.779809451806 429.94849644938716L723.779809451806 429.94849644938716Q723.779809451806 430.40561444302574 722.3758041856305 430.40561444302574Q720.971798919455 430.40561444302574 720.971798919455 429.94849644938716ZM839.6918721244442 471.77479286731653L815.4646184615999 483.30069656406056Q814.5177311890628 483.790465842959 813.6034952017857 483.790465842959L813.6034952017857 483.790465842959Q810.5342743873553 483.790465842959 807.7262638550039 478.72951662767485Q804.8856020373929 473.6685674123906 804.8856020373929 464.03643826072073L804.8856020373929 464.03643826072073L804.8856020373929 421.94893156071214Q804.8856020373929 410.9127971428666 802.8938736365392 404.7743555140058Q800.9021452356853 398.6685651704048 797.473760283396 396.3176726316921Q794.0780266163666 393.9667800929795 789.8333595325798 393.9667800929795L789.8333595325798 393.9667800929795Q783.9561281857982 393.9667800929795 780.2012303809099 396.9053957663703Q776.4463325760216 399.8440114397611 774.5525580309476 404.31723752036714Q772.6914347711333 408.7904636009732 771.9731064954157 413.26368968157925L771.9731064954157 413.26368968157925Q771.7445474985964 416.52881820756903 769.9813780945619 419.36948002518017Q768.2182086905274 422.1774905575314 763.2878646162828 422.1774905575314L763.2878646162828 422.1774905575314Q759.5329668113944 422.1774905575314 757.4106332695011 420.31636729771725Q755.2882997276078 418.42259275264314 755.2882997276078 415.12481294139343L755.2882997276078 415.12481294139343Q755.2882997276078 410.9127971428666 759.5329668113944 406.30896592122093Q763.7449826099214 401.7377859848352 770.2099370913811 397.8522830389074Q776.6748915728409 393.9667800929795 783.8581743300185 391.5179336984871Q791.0088058019362 389.0364360187349 797.3758064276163 389.0364360187349L797.3758064276163 389.0364360187349Q806.2896073035685 389.0364360187349 812.1668386503502 395.2728315033754Q818.0440699971318 401.50922698801594 818.0440699971318 414.89625394457414L818.0440699971318 414.89625394457414L818.0440699971318 456.4939913656843Q818.0440699971318 464.72211525117854 820.1664035390252 468.50966434132675Q822.2887370809185 472.26456214621504 826.9905221583439 472.26456214621504L826.9905221583439 472.26456214621504Q831.2351892421307 472.26456214621504 838.7449848519071 469.1953413317846L838.7449848519071 469.1953413317846Q839.9204311212635 468.73822333814604 840.3775491149021 470.0116234632821Q840.8673183938006 471.31767487367796 839.6918721244442 471.77479286731653L839.6918721244442 471.77479286731653ZM769.3936549598836 483.52925556087985L769.3936549598836 483.52925556087985Q761.8838593501072 483.52925556087985 758.096310259959 479.4151936181327Q754.3414124550707 475.30113167538553 754.3414124550707 469.91366960750236L754.3414124550707 469.91366960750236Q754.3414124550707 463.318109985003 759.5329668113944 459.4326070390751Q764.6918698824584 455.5797553784071 776.4463325760216 451.5636472914397L776.4463325760216 451.5636472914397L807.2364945761055 440.5275128735941L807.9548228518233 443.1069644091261L780.6909996598084 453.45742183651373Q775.2708863066654 455.5797553784071 773.0505989089922 458.1592069139391Q770.7976602260593 460.73865844947096 770.7976602260593 464.72211525117854L770.7976602260593 464.72211525117854Q770.7976602260593 469.68511061068307 773.6383220436704 472.3625160019947Q776.4463325760216 475.07257267856625 780.9195586566277 475.07257267856625L780.9195586566277 475.07257267856625Q783.4990101921596 475.07257267856625 785.8499027308724 474.48484954388806Q788.200795269585 473.89712640920993 790.5516878082976 472.7216801398536L790.5516878082976 472.7216801398536L810.5342743873553 462.6324329945451L810.9913923809938 465.44044352689633L790.5516878082976 476.4765779447419Q783.4990101921596 480.0029167528109 778.7972251147344 481.76608615684535Q774.095440037309 483.52925556087985 769.3936549598836 483.52925556087985ZM938.6579177471951 391.1587695606283L938.6579177471951 391.1587695606283Q939.1150357408337 391.1587695606283 939.1150357408337 392.5627748268039Q939.1150357408337 393.9667800929795 938.6579177471951 393.9667800929795L938.6579177471951 393.9667800929795Q932.7806864004135 393.9667800929795 928.6666244576663 397.6237240420881Q924.5525625149193 401.2480167059368 920.5691057132117 411.14135613968585L920.5691057132117 411.14135613968585L891.1829489793034 481.66813230106567Q890.9217386972243 482.61501957360275 888.7014512995512 482.61501957360275Q886.4811639018781 482.61501957360275 885.9913946229797 481.66813230106567L885.9913946229797 481.66813230106567L853.0788990810024 410.6515868607874Q848.1485550067578 400.0725704365804 844.9813803365477 397.0360009074099Q841.8142056663376 393.9667800929795 837.3409795857316 393.9667800929795L837.3409795857316 393.9667800929795Q836.6226513100138 393.9667800929795 836.6226513100138 392.5627748268039Q836.6226513100138 391.1587695606283 837.3409795857316 391.1587695606283L837.3409795857316 391.1587695606283Q840.8673183938006 391.1587695606283 844.9813803365477 391.3873285574475Q849.0954422792948 391.6158875542668 853.5686683599009 391.6158875542668L853.5686683599009 391.6158875542668Q861.535581963316 391.6158875542668 867.4128133100977 391.3873285574475Q873.2900446568793 391.1587695606283 878.2530400163838 391.1587695606283L878.2530400163838 391.1587695606283Q878.9387170068417 391.1587695606283 878.9387170068417 392.5627748268039Q878.9387170068417 393.9667800929795 878.2530400163838 393.9667800929795L878.2530400163838 393.9667800929795Q870.9391521181667 393.9667800929795 866.7271363196398 395.729949497014Q862.482469235853 397.4931189010485 865.0619207713851 403.14179125101083L865.0619207713851 403.14179125101083L895.166405781011 467.0730077898912L888.3422871616923 476.73778822682107L915.8673206357864 409.96590987032954Q919.3936594438553 401.50922698801594 915.2795975011081 397.7216778978678Q911.1655355583611 393.9667800929795 898.9213035858993 393.9667800929795L898.9213035858993 393.9667800929795Q898.4641855922607 393.9667800929795 898.4641855922607 392.5627748268039Q898.4641855922607 391.1587695606283 898.9213035858993 391.1587695606283L898.9213035858993 391.1587695606283Q904.5699759358616 391.1587695606283 909.6309251511459 391.3873285574475Q914.69187436643 391.6158875542668 922.6587879698452 391.6158875542668L922.6587879698452 391.6158875542668Q927.6217833293497 391.6158875542668 930.7889579995597 391.3873285574475Q933.9561326697699 391.1587695606283 938.6579177471951 391.1587695606283ZM951.8163857069342 481.89669129788496L951.8163857069342 481.89669129788496Q951.3592677132956 481.89669129788496 951.3592677132956 480.4926860317093Q951.3592677132956 479.08868076553375 951.8163857069342 479.08868076553375L951.8163857069342 479.08868076553375Q960.9913968649655 479.08868076553375 963.9300125383563 475.8888548100637Q966.8686282117471 472.7216801398536 966.8686282117471 462.8609919913644L966.8686282117471 462.8609919913644L966.8686282117471 418.8797107462817Q966.8686282117471 410.6515868607874 965.2360639487522 406.79873520011944Q963.5708484004974 402.91323225419154 959.0976223198913 402.91323225419154L959.0976223198913 402.91323225419154Q957.2364990600772 402.91323225419154 954.6570475245453 403.729514385689Q952.0449447037535 404.5457965171865 948.5186058956845 406.21101206544125L948.5186058956845 406.21101206544125Q947.6043699084073 406.43957106226054 947.0166467737291 405.1335196518646Q946.4289236390509 403.8601195267286 947.1146006295088 403.3703502478301L947.1146006295088 403.3703502478301L977.6762036327734 389.2649950155542Q978.3945319084911 389.0364360187349 978.6230909053104 389.0364360187349L978.6230909053104 389.0364360187349Q979.080208898949 389.0364360187349 979.7985371746668 389.624159153413Q980.5168654503846 390.2118822880912 980.5168654503846 390.930210563809L980.5168654503846 390.930210563809Q980.5168654503846 392.7913338236232 980.2556551683053 400.0725704365804Q980.0270961714859 407.3864583347976 980.0270961714859 418.65115174946243L980.0270961714859 418.65115174946243L980.0270961714859 462.8609919913644Q980.0270961714859 472.7216801398536 982.7371528480576 475.8888548100637Q985.4472095246292 479.08868076553375 994.8507796794797 479.08868076553375L994.8507796794797 479.08868076553375Q995.5364566699376 479.08868076553375 995.5364566699376 480.4926860317093Q995.5364566699376 481.89669129788496 994.8507796794797 481.89669129788496L994.8507796794797 481.89669129788496Q990.606112595693 481.89669129788496 985.0880453867703 481.66813230106567Q979.5699781778474 481.4395733042464 973.4641878342466 481.4395733042464L973.4641878342466 481.4395733042464Q967.3257462053857 481.4395733042464 961.807678996463 481.66813230106567Q956.2896117875401 481.89669129788496 951.8163857069342 481.89669129788496ZM971.5704132891725 361.54405382990075L971.5704132891725 361.54405382990075Q966.6400692149278 361.54405382990075 963.9300125383563 358.9319510091089Q961.2199558617848 356.3524994735769 961.2199558617848 351.6507143961516L961.2199558617848 351.6507143961516Q961.2199558617848 346.9489293187263 963.9300125383563 344.3694777831943Q966.6400692149278 341.7900262476624 971.5704132891725 341.7900262476624L971.5704132891725 341.7900262476624Q976.2721983665978 341.7900262476624 978.8516499021297 344.3694777831943Q981.4311014376617 346.9489293187263 981.4311014376617 351.6507143961516L981.4311014376617 351.6507143961516Q981.4311014376617 361.54405382990075 971.5704132891725 361.54405382990075ZM1057.8351089458233 484.70470183023616L1057.8351089458233 484.70470183023616Q1041.8686304537332 484.70470183023616 1031.7467320231644 477.7826293551378Q1021.6574848778561 470.8605568800394 1016.8250946593912 460.1509353147929Q1011.9927044409262 449.4413137495463 1011.9927044409262 438.4051793317007L1011.9927044409262 438.4051793317007Q1011.9927044409262 426.65071663813745 1016.5965356625718 417.4757054801061Q1021.1677155989576 408.3006943220747 1028.7101624939942 401.9663449816545Q1036.2199581037708 395.63199564123425 1045.394969261802 392.3342158299846Q1054.5699804198334 389.0364360187349 1063.2552222989661 389.0364360187349L1063.2552222989661 389.0364360187349Q1070.0793409182847 389.0364360187349 1076.3157364029253 390.7996054227694Q1082.519480602306 392.5627748268039 1086.6335425450534 395.86055463805354Q1090.7476044878003 399.15833444930325 1090.7476044878003 403.3703502478301L1090.7476044878003 403.3703502478301Q1090.7476044878003 406.43957106226054 1088.657922231167 408.6598584599336Q1086.5355886892735 410.9127971428666 1082.519480602306 410.9127971428666L1082.519480602306 410.9127971428666Q1078.764582797418 410.9127971428666 1076.3157364029253 408.56190460415394Q1073.8342387231733 406.21101206544125 1072.2016744601783 403.14179125101083L1072.2016744601783 403.14179125101083Q1069.5895716393866 398.8971241672241 1066.0632328313177 396.3176726316921Q1062.5368940232484 393.7382210961602 1055.4842164071106 393.7382210961602L1055.4842164071106 393.7382210961602Q1042.0971894505524 393.7382210961602 1034.815952837595 404.1866323793276Q1027.534716224638 414.66769494775485 1027.534716224638 431.35250171556277L1027.534716224638 431.35250171556277Q1027.534716224638 443.33552340594537 1031.648778167385 453.685980833333Q1035.762840110132 464.03643826072073 1044.4480819892651 470.27283374536125Q1053.1333238683978 476.4765779447419 1067.0101201038547 476.4765779447419L1067.0101201038547 476.4765779447419Q1073.377120729535 476.4765779447419 1079.4829110731357 474.84401368174696Q1085.5887014167365 473.2114494187521 1091.0088147698798 468.73822333814604L1091.0088147698798 468.73822333814604Q1091.4659327635181 468.24845405924754 1092.2822148950158 469.1953413317846Q1093.098497026513 470.14222860432164 1092.6413790328743 470.5993465979602L1092.6413790328743 470.5993465979602Q1084.4132551473804 477.9132344961774 1076.185131261886 481.30896816320677Q1067.9570073763916 484.70470183023616 1057.8351089458233 484.70470183023616ZM1153.046256763686 484.9659121123154L1153.046256763686 484.9659121123154Q1139.2021118134894 484.9659121123154 1128.8516543861015 478.14179349299667Q1118.501196958714 471.31767487367796 1112.8525246087515 459.92237631797354Q1107.203852258789 448.52707776226913 1107.203852258789 435.33595851727034L1107.203852258789 435.33595851727034Q1107.203852258789 423.12437783006845 1111.677078339395 414.1779256688564Q1116.1503044200012 405.2641247929042 1123.6601000297778 399.4848473019023Q1131.2025469248142 393.7382210961602 1140.0183939449867 390.930210563809Q1148.834240965159 388.08954874619786 1157.2909238474726 388.08954874619786L1157.2909238474726 388.08954874619786Q1171.6248380765678 388.08954874619786 1181.844690362916 395.1422263623358Q1192.097193934524 402.1949039784738 1197.484656002407 413.26368968157925Q1202.9047693555503 424.29982409942477 1202.9047693555503 436.51140478662666L1202.9047693555503 436.51140478662666Q1202.9047693555503 451.5636472914397 1196.0806507362313 462.3712227124659Q1189.2565321169127 473.2114494187521 1177.991838702248 479.08868076553375Q1166.6944940023232 484.9659121123154 1153.046256763686 484.9659121123154ZM1159.8703753830046 480.4926860317093L1159.8703753830046 480.4926860317093Q1172.3431663522856 480.4926860317093 1179.624402965243 471.67683901153686Q1186.9056395782 462.8609919913644 1186.9056395782 443.1069644091261L1186.9056395782 443.1069644091261Q1186.9056395782 428.28328090113234 1182.105900644995 416.88798234542793Q1177.2735104265303 405.4926837897235 1168.8168275442167 399.0277293082637Q1160.3601446619032 392.5627748268039 1149.5199179556166 392.5627748268039L1149.5199179556166 392.5627748268039Q1137.0797782715958 392.5627748268039 1130.0271006554576 401.7377859848352Q1122.9744230393198 410.9127971428666 1122.9744230393198 428.05472190431306L1122.9744230393198 428.05472190431306Q1122.9744230393198 442.3886361334083 1127.6762081167453 454.40430910905076Q1132.3779931941704 466.3873307994334 1140.7040709354446 473.4400084155713Q1149.0627999619783 480.4926860317093 1159.8703753830046 480.4926860317093ZM1285.1860082104931 481.89669129788496L1285.1860082104931 481.89669129788496Q1284.4676799347753 481.89669129788496 1284.4676799347753 480.4926860317093Q1284.4676799347753 479.08868076553375 1285.1860082104931 479.08868076553375L1285.1860082104931 479.08868076553375Q1294.3610193685245 479.08868076553375 1297.0384247598363 475.8888548100637Q1299.748481436408 472.7216801398536 1299.748481436408 462.8609919913644L1299.748481436408 462.8609919913644L1299.748481436408 424.75694209306334Q1299.748481436408 410.6515868607874 1294.589578365344 404.1866323793276Q1289.39802400902 397.7216778978678 1278.1333305943554 397.7216778978678L1278.1333305943554 397.7216778978678Q1269.6766477120418 397.7216778978678 1260.7301955508296 403.14179125101083Q1251.7837433896175 408.56190460415394 1245.4493940491975 417.96547475900456L1245.4493940491975 417.96547475900456L1244.5025067766605 415.12481294139343Q1254.852964204048 401.2480167059368 1265.0728164903962 394.68510836869723Q1275.292668776744 388.08954874619786 1285.871685200951 388.08954874619786L1285.871685200951 388.08954874619786Q1298.801594163871 388.08954874619786 1305.9848769210485 395.2728315033754Q1313.168159678226 402.4234629752931 1313.168159678226 416.79002848964825L1313.168159678226 416.79002848964825L1313.168159678226 462.8609919913644Q1313.168159678226 472.7216801398536 1315.8455650695378 475.8888548100637Q1318.555621746109 479.08868076553375 1327.7306329041403 479.08868076553375L1327.7306329041403 479.08868076553375Q1328.448961179858 479.08868076553375 1328.448961179858 480.4926860317093Q1328.448961179858 481.89669129788496 1327.7306329041403 481.89669129788496L1327.7306329041403 481.89669129788496Q1323.747176102433 481.89669129788496 1318.1964576082505 481.66813230106567Q1312.6783903993273 481.4395733042464 1306.5726000557265 481.4395733042464L1306.5726000557265 481.4395733042464Q1300.4668097121257 481.4395733042464 1294.8181373621633 481.66813230106567Q1289.1694650122008 481.89669129788496 1285.1860082104931 481.89669129788496ZM1221.940468662071 481.89669129788496L1221.940468662071 481.89669129788496Q1221.2221403863532 481.89669129788496 1221.2221403863532 480.4926860317093Q1221.2221403863532 479.08868076553375 1221.940468662071 479.08868076553375L1221.940468662071 479.08868076553375Q1231.1154798201023 479.08868076553375 1233.8255364966735 475.8888548100637Q1236.5029418879853 472.7216801398536 1236.5029418879853 462.8609919913644L1236.5029418879853 462.8609919913644L1236.5029418879853 416.30025921074974Q1236.5029418879853 408.56190460415394 1234.7397724839507 404.90496065504533Q1232.9766030799165 401.2480167059368 1228.274818002491 401.2480167059368L1228.274818002491 401.2480167059368Q1225.9239254637782 401.2480167059368 1222.7567507935682 402.1949039784738Q1219.5895761233583 403.14179125101083 1215.6061193216506 404.7743555140058L1215.6061193216506 404.7743555140058Q1214.6592320491136 405.03556579608494 1214.0715089144355 403.8601195267286Q1213.4837857797575 402.68467325737225 1214.4306730522944 402.1949039784738L1214.4306730522944 402.1949039784738L1241.694496244309 389.2649950155542Q1242.380173234767 389.0364360187349 1243.0985015104848 389.0364360187349L1243.0985015104848 389.0364360187349Q1244.7310657734797 389.0364360187349 1247.3431685942714 393.9667800929795Q1249.9226201298034 398.8971241672241 1249.9226201298034 408.3006943220747L1249.9226201298034 408.3006943220747L1249.9226201298034 462.8609919913644Q1249.9226201298034 472.7216801398536 1252.632676806375 475.8888548100637Q1255.3100821976868 479.08868076553375 1264.4850933557182 479.08868076553375L1264.4850933557182 479.08868076553375Q1265.2034216314355 479.08868076553375 1265.2034216314355 480.4926860317093Q1265.2034216314355 481.89669129788496 1264.4850933557182 481.89669129788496L1264.4850933557182 481.89669129788496Q1260.5016365540105 481.89669129788496 1254.9835693450877 481.66813230106567Q1249.4328508509047 481.4395733042464 1243.327060507304 481.4395733042464L1243.327060507304 481.4395733042464Q1237.2212701637031 481.4395733042464 1231.5725978137407 481.66813230106567Q1225.9239254637782 481.89669129788496 1221.940468662071 481.89669129788496ZM1356.1699023655115 484.4761428334169L1356.1699023655115 484.4761428334169Q1351.4681172880864 484.4761428334169 1348.6601067557353 481.76608615684535Q1345.819444938124 479.08868076553375 1345.819444938124 474.3868956881084L1345.819444938124 474.3868956881084Q1345.819444938124 469.91366960750236 1348.6601067557353 467.20361293093083Q1351.4681172880864 464.49355625435925 1356.1699023655115 464.49355625435925L1356.1699023655115 464.49355625435925Q1361.1002464397561 464.49355625435925 1363.7123492605483 467.20361293093083Q1366.2918007960802 469.91366960750236 1366.2918007960802 474.3868956881084L1366.2918007960802 474.3868956881084Q1366.2918007960802 479.08868076553375 1363.7123492605483 481.76608615684535Q1361.1002464397561 484.4761428334169 1356.1699023655115 484.4761428334169ZM1391.6618494430209 481.89669129788496L1391.6618494430209 481.89669129788496Q1391.204731449382 481.89669129788496 1391.204731449382 480.4926860317093Q1391.204731449382 479.08868076553375 1391.6618494430209 479.08868076553375L1391.6618494430209 479.08868076553375Q1400.8368606010522 479.08868076553375 1403.775476274443 475.8888548100637Q1406.7140919478338 472.7216801398536 1406.7140919478338 462.8609919913644L1406.7140919478338 462.8609919913644L1406.7140919478338 418.8797107462817Q1406.7140919478338 410.6515868607874 1405.0815276848389 406.79873520011944Q1403.416312136584 402.91323225419154 1398.975737341238 402.91323225419154L1398.975737341238 402.91323225419154Q1397.0819627961641 402.91323225419154 1394.5025112606322 403.729514385689Q1391.9230597250998 404.5457965171865 1388.396720917031 406.21101206544125L1388.396720917031 406.21101206544125Q1387.449833644494 406.43957106226054 1386.862110509816 405.1335196518646Q1386.2743873751378 403.8601195267286 1386.9600643655954 403.3703502478301L1386.9600643655954 403.3703502478301L1417.52166736886 389.2649950155542Q1418.239995644578 389.0364360187349 1418.468554641397 389.0364360187349L1418.468554641397 389.0364360187349Q1418.9583239202957 389.0364360187349 1419.6440009107537 389.624159153413Q1420.362329186471 390.2118822880912 1420.362329186471 390.930210563809L1420.362329186471 390.930210563809Q1420.362329186471 392.7913338236232 1420.1337701896518 400.0725704365804Q1419.8725599075728 407.3864583347976 1419.8725599075728 418.65115174946243L1419.8725599075728 418.65115174946243L1419.8725599075728 462.8609919913644Q1419.8725599075728 472.7216801398536 1422.5826165841445 475.8888548100637Q1425.2926732607157 479.08868076553375 1434.6962434155666 479.08868076553375L1434.6962434155666 479.08868076553375Q1435.4145716912844 479.08868076553375 1435.4145716912844 480.4926860317093Q1435.4145716912844 481.89669129788496 1434.6962434155666 481.89669129788496L1434.6962434155666 481.89669129788496Q1430.4515763317795 481.89669129788496 1424.9335091228572 481.66813230106567Q1419.415441913934 481.4395733042464 1413.3096515703332 481.4395733042464L1413.3096515703332 481.4395733042464Q1407.2038612267324 481.4395733042464 1401.65314273255 481.66813230106567Q1396.1350755236267 481.89669129788496 1391.6618494430209 481.89669129788496ZM1411.4158770252593 361.54405382990075L1411.4158770252593 361.54405382990075Q1406.4855329510146 361.54405382990075 1403.775476274443 358.9319510091089Q1401.0654195978714 356.3524994735769 1401.0654195978714 351.6507143961516L1401.0654195978714 351.6507143961516Q1401.0654195978714 346.9489293187263 1403.775476274443 344.3694777831943Q1406.4855329510146 341.7900262476624 1411.4158770252593 341.7900262476624L1411.4158770252593 341.7900262476624Q1416.1176621026843 341.7900262476624 1418.6971136382167 344.3694777831943Q1421.3092164590084 346.9489293187263 1421.3092164590084 351.6507143961516L1421.3092164590084 351.6507143961516Q1421.3092164590084 361.54405382990075 1411.4158770252593 361.54405382990075ZM1497.7132239671696 484.9659121123154L1497.7132239671696 484.9659121123154Q1483.8364277317132 484.9659121123154 1473.4859703043253 478.14179349299667Q1463.1355128769378 471.31767487367796 1457.4868405269754 459.92237631797354Q1451.8708194622727 448.52707776226913 1451.8708194622727 435.33595851727034L1451.8708194622727 435.33595851727034Q1451.8708194622727 423.12437783006845 1456.3113942576192 414.1779256688564Q1460.784620338225 405.2641247929042 1468.3270672332615 399.4848473019023Q1475.836862843038 393.7382210961602 1484.6527098632105 390.930210563809Q1493.468556883383 388.08954874619786 1501.9252397656965 388.08954874619786L1501.9252397656965 388.08954874619786Q1516.2591539947916 388.08954874619786 1526.5116575663997 395.1422263623358Q1536.7315098527479 402.1949039784738 1542.1189719206313 413.26368968157925Q1547.5390852737742 424.29982409942477 1547.5390852737742 436.51140478662666L1547.5390852737742 436.51140478662666Q1547.5390852737742 451.5636472914397 1540.7149666544556 462.3712227124659Q1533.890848035137 473.2114494187521 1522.6261546204719 479.08868076553375Q1511.3288099205474 484.9659121123154 1497.7132239671696 484.9659121123154ZM1504.5046913012284 480.4926860317093L1504.5046913012284 480.4926860317093Q1516.9774822705099 480.4926860317093 1524.2587188834668 471.67683901153686Q1531.5399554964242 462.8609919913644 1531.5399554964242 443.1069644091261L1531.5399554964242 443.1069644091261Q1531.5399554964242 428.28328090113234 1526.7402165632193 416.88798234542793Q1521.907826344754 405.4926837897235 1513.4511434624405 399.0277293082637Q1504.994460580127 392.5627748268039 1494.1868851591007 392.5627748268039L1494.1868851591007 392.5627748268039Q1481.7140941898197 392.5627748268039 1474.661416573682 401.7377859848352Q1467.6087389575437 410.9127971428666 1467.6087389575437 428.05472190431306L1467.6087389575437 428.05472190431306Q1467.6087389575437 442.3886361334083 1472.3105240349691 454.40430910905076Q1477.0123091123946 466.3873307994334 1485.3710381389283 473.4400084155713Q1493.697115880202 480.4926860317093 1504.5046913012284 480.4926860317093Z " fill="#ddc6b6" transform="matrix(0.5654138449273387,0,0,0.5654138449273387,0,68.19960872756491)"/></g></svg>